<svg xmlns="http://www.w3.org/2000/svg" viewBox="0 0 480 250"><rect width="480" height="250" fill="#edf1eb"/><g stroke="#899f91" stroke-width="3"><path d="M145 30v190M335 30v190"/><circle cx="145" cy="42" r="10" fill="#efe1ca"/><circle cx="335" cy="42" r="10" fill="#efe1ca"/><path d="M155 42h170" stroke-dasharray="3 4"/><rect x="163" y="31" width="64" height="22" rx="6" fill="#e8a18b"/><rect x="253" y="31" width="64" height="22" rx="6" fill="#83c5b5"/><g fill="#253b33" stroke="none" font-family="sans-serif" font-size="14" text-anchor="middle"><text x="195" y="47">A</text><text x="285" y="47">T</text></g><circle cx="145" cy="74" r="10" fill="#efe1ca"/><circle cx="335" cy="74" r="10" fill="#efe1ca"/><path d="M155 74h170" stroke-dasharray="3 4"/><rect x="163" y="63" width="64" height="22" rx="6" fill="#98b5df"/><rect x="253" y="63" width="64" height="22" rx="6" fill="#e9c477"/><g fill="#253b33" stroke="none" font-family="sans-serif" font-size="14" text-anchor="middle"><text x="195" y="79">G</text><text x="285" y="79">C</text></g><circle cx="145" cy="106" r="10" fill="#efe1ca"/><circle cx="335" cy="106" r="10" fill="#efe1ca"/><path d="M155 106h170" stroke-dasharray="3 4"/><rect x="163" y="95" width="64" height="22" rx="6" fill="#e8a18b"/><rect x="253" y="95" width="64" height="22" rx="6" fill="#83c5b5"/><g fill="#253b33" stroke="none" font-family="sans-serif" font-size="14" text-anchor="middle"><text x="195" y="111">A</text><text x="285" y="111">T</text></g><circle cx="145" cy="138" r="10" fill="#efe1ca"/><circle cx="335" cy="138" r="10" fill="#efe1ca"/><path d="M155 138h170" stroke-dasharray="3 4"/><rect x="163" y="127" width="64" height="22" rx="6" fill="#98b5df"/><rect x="253" y="127" width="64" height="22" rx="6" fill="#e9c477"/><g fill="#253b33" stroke="none" font-family="sans-serif" font-size="14" text-anchor="middle"><text x="195" y="143">G</text><text x="285" y="143">C</text></g><circle cx="145" cy="170" r="10" fill="#efe1ca"/><circle cx="335" cy="170" r="10" fill="#efe1ca"/><path d="M155 170h170" stroke-dasharray="3 4"/><rect x="163" y="159" width="64" height="22" rx="6" fill="#e8a18b"/><rect x="253" y="159" width="64" height="22" rx="6" fill="#83c5b5"/><g fill="#253b33" stroke="none" font-family="sans-serif" font-size="14" text-anchor="middle"><text x="195" y="175">A</text><text x="285" y="175">T</text></g><circle cx="145" cy="202" r="10" fill="#efe1ca"/><circle cx="335" cy="202" r="10" fill="#efe1ca"/><path d="M155 202h170" stroke-dasharray="3 4"/><rect x="163" y="191" width="64" height="22" rx="6" fill="#98b5df"/><rect x="253" y="191" width="64" height="22" rx="6" fill="#e9c477"/><g fill="#253b33" stroke="none" font-family="sans-serif" font-size="14" text-anchor="middle"><text x="195" y="207">G</text><text x="285" y="207">C</text></g></g></svg>